<mxfile host="app.diagrams.net" modified="2023-05-04T16:56:21.440Z" agent="Mozilla/5.0 (Macintosh; Intel Mac OS X 10_13_6) AppleWebKit/537.36 (KHTML, like Gecko) Chrome/111.0.0.0 Safari/537.36" version="21.2.1" etag="avE7SGWFed82yRrVEJU9" type="github">
  <diagram name="Page-1" id="ttwxNuHokcq7-JYGPXUx">
    <mxGraphModel>
      <root>
        <mxCell id="0" />
        <mxCell id="1" parent="0" />
      </root>
    </mxGraphModel>
  </diagram>
</mxfile>
